<svg width="1653" height="993" xmlns="http://www.w3.org/2000/svg" xmlns:xlink="http://www.w3.org/1999/xlink" xml:space="preserve" overflow="hidden"><defs><clipPath id="clip0"><rect x="3179" y="1661" width="1653" height="993"/></clipPath><clipPath id="clip1"><rect x="3180" y="1662" width="1650" height="990"/></clipPath><clipPath id="clip2"><rect x="3180" y="1662" width="1650" height="990"/></clipPath><clipPath id="clip3"><rect x="3332" y="1832" width="1451" height="694"/></clipPath><clipPath id="clip4"><rect x="3180" y="1662" width="1650" height="990"/></clipPath><clipPath id="clip5"><rect x="3180" y="1662" width="1650" height="990"/></clipPath><clipPath id="clip6"><rect x="3180" y="1662" width="1650" height="990"/></clipPath><clipPath id="clip7"><rect x="3180" y="1662" width="1650" height="990"/></clipPath><clipPath id="clip8"><rect x="3180" y="1662" width="1650" height="990"/></clipPath><clipPath id="clip9"><rect x="3180" y="1662" width="1650" height="990"/></clipPath><clipPath id="clip10"><rect x="3180" y="1662" width="1650" height="990"/></clipPath><clipPath id="clip11"><rect x="3180" y="1662" width="1650" height="990"/></clipPath><clipPath id="clip12"><rect x="3180" y="1662" width="1650" height="990"/></clipPath><clipPath id="clip13"><rect x="3180" y="1662" width="1650" height="990"/></clipPath><clipPath id="clip14"><rect x="3180" y="1662" width="1650" height="990"/></clipPath><clipPath id="clip15"><rect x="3180" y="1662" width="1650" height="990"/></clipPath><clipPath id="clip16"><rect x="3180" y="1662" width="1650" height="990"/></clipPath><clipPath id="clip17"><rect x="3180" y="1662" width="1650" height="990"/></clipPath><clipPath id="clip18"><rect x="3180" y="1662" width="1650" height="990"/></clipPath><clipPath id="clip19"><rect x="3180" y="1662" width="1650" height="990"/></clipPath><clipPath id="clip20"><rect x="3180" y="1662" width="1650" height="990"/></clipPath><clipPath id="clip21"><rect x="3180" y="1662" width="1650" height="990"/></clipPath><clipPath id="clip22"><rect x="3180" y="1662" width="1650" height="990"/></clipPath><clipPath id="clip23"><rect x="3180" y="1662" width="1650" height="990"/></clipPath><clipPath id="clip24"><rect x="3180" y="1662" width="1650" height="990"/></clipPath><clipPath id="clip25"><rect x="3180" y="1662" width="1650" height="990"/></clipPath><clipPath id="clip26"><rect x="3180" y="1662" width="1650" height="990"/></clipPath><clipPath id="clip27"><rect x="3180" y="1662" width="1650" height="990"/></clipPath><clipPath id="clip28"><rect x="3180" y="1662" width="1650" height="990"/></clipPath><clipPath id="clip29"><rect x="3180" y="1662" width="1650" height="990"/></clipPath><clipPath id="clip30"><rect x="3180" y="1662" width="1650" height="990"/></clipPath><clipPath id="clip31"><rect x="3180" y="1662" width="1650" height="990"/></clipPath><clipPath id="clip32"><rect x="3180" y="1662" width="1650" height="990"/></clipPath><clipPath id="clip33"><rect x="3180" y="1662" width="1650" height="990"/></clipPath><clipPath id="clip34"><rect x="3180" y="1662" width="1650" height="990"/></clipPath><clipPath id="clip35"><rect x="3180" y="1662" width="1650" height="990"/></clipPath><clipPath id="clip36"><rect x="3180" y="1662" width="1650" height="990"/></clipPath><clipPath id="clip37"><rect x="3180" y="1662" width="1650" height="990"/></clipPath><clipPath id="clip38"><rect x="3180" y="1662" width="1650" height="990"/></clipPath><clipPath id="clip39"><rect x="3180" y="1662" width="1650" height="990"/></clipPath><clipPath id="clip40"><rect x="3180" y="1662" width="1650" height="990"/></clipPath><clipPath id="clip41"><rect x="3180" y="1662" width="1650" height="990"/></clipPath></defs><g clip-path="url(#clip0)" transform="translate(-3179 -1661)"><rect x="3180" y="1662" width="1650" height="990" fill="#FFFFFF"/><g clip-path="url(#clip1)"><path d="M3332.5 2453.58 4779.5 2453.58M3332.5 2384.58 4779.5 2384.58M3332.5 2315.58 4779.5 2315.58M3332.5 2246.57 4779.5 2246.57M3332.5 2177.57 4779.5 2177.57M3332.5 2108.57 4779.5 2108.57M3332.5 2039.57 4779.5 2039.57M3332.5 1970.56 4779.5 1970.56M3332.5 1901.56 4779.5 1901.56M3332.5 1832.5 4779.5 1832.5" stroke="#D9D9D9" stroke-width="3.4375" stroke-linejoin="round" stroke-miterlimit="10" fill="none"/></g><g clip-path="url(#clip2)"><path d="M3332.5 2523.5 4779.5 2523.5" stroke="#D9D9D9" stroke-width="3.4375" stroke-linejoin="round" stroke-miterlimit="10" fill="none" fill-rule="evenodd"/></g><g clip-path="url(#clip3)"><path d="M3337 2523 3346.11 2523.08 3356.11 2523.08 3365.11 2523.08 3375.11 2523.08 3385.11 2522.08 3394.11 2522.08 3404.11 2522.08 3413.11 2521.08 3423.11 2521.08 3433.11 2520.08 3442.11 2520.08 3452.11 2519.08 3461.11 2518.08 3471.11 2518.08 3481.11 2517.08 3490.11 2516.08 3500.11 2515.08 3509.12 2514.08 3519.12 2513.08 3528.12 2512.08 3538.12 2511.08 3548.12 2510.08 3557.12 2508.08 3567.12 2507.08 3576.12 2506.08 3586.12 2504.08 3596.12 2503.08 3605.12 2501.08 3615.12 2500.08 3624.12 2498.08 3634.12 2496.08 3644.12 2495.08 3653.12 2493.08 3663.12 2491.08 3672.12 2489.08 3682.12 2487.08 3691.12 2485.08 3701.12 2483.08 3711.12 2481.08 3720.12 2479.08 3730.12 2477.08 3739.12 2474.08 3749.12 2472.08 3759.12 2469.08 3768.12 2467.08 3778.12 2464.08 3787.12 2462.08 3797.12 2459.08 3807.12 2457.08 3816.13 2454.08 3826.13 2451.08 3835.13 2448.08 3845.13 2445.08 3854.13 2442.08 3864.13 2439.08 3874.13 2436.08 3883.13 2433.08 3893.13 2430.08 3902.13 2427.08 3912.13 2423.08 3922.13 2420.08 3931.13 2417.08 3941.13 2413.08 3950.13 2410.08 3960.13 2406.08 3970.13 2403.08 3979.13 2399.08 3989.13 2395.08 3998.13 2391.08 4008.13 2388.08 4017.13 2384.08 4027.13 2380.08 4037.13 2376.08 4046.13 2372.08 4056.13 2368.08 4065.13 2363.08 4075.13 2359.08 4085.13 2355.08 4094.13 2350.08 4104.13 2346.08 4113.14 2342.08 4123.14 2337.08 4133.14 2333.08 4142.14 2328.08 4152.14 2323.08 4161.14 2319.08 4171.14 2314.08 4180.14 2309.08 4190.14 2304.08 4200.14 2299.08 4209.14 2294.08 4219.14 2289.07 4228.14 2284.07 4238.14 2279.07 4248.14 2274.07 4257.14 2268.07 4267.14 2263.07 4276.14 2258.07 4286.14 2252.07 4296.14 2247.07 4305.14 2241.07 4315.14 2235.07 4324.14 2230.07 4334.14 2224.07 4343.14 2218.07 4353.14 2212.07 4363.14 2207.07 4372.14 2201.07 4382.14 2195.07 4391.14 2189.07 4401.14 2182.07 4411.14 2176.07 4420.15 2170.07 4430.15 2164.07 4439.15 2157.07 4449.15 2151.07 4459.15 2145.07 4468.15 2138.07 4478.15 2132.07 4487.15 2125.07 4497.15 2118.07 4507.15 2112.07 4516.15 2105.07 4526.15 2098.07 4535.15 2091.07 4545.15 2084.07 4554.15 2077.07 4564.15 2070.07 4574.15 2063.07 4583.15 2056.07 4593.15 2049.07 4602.15 2041.07 4612.15 2034.07 4622.15 2027.07 4631.15 2019.07 4641.15 2012.07 4650.15 2004.07 4660.15 1997.07 4670.15 1989.07 4679.15 1981.06 4689.15 1973.06 4698.15 1966.06 4708.15 1958.06 4717.15 1950.06 4727.16 1942.06 4737.16 1934.06 4746.16 1926.06 4756.16 1918.06 4765.16 1909.06 4775 1901" stroke="#4472C4" stroke-width="10.3125" stroke-linecap="round" stroke-linejoin="round" stroke-miterlimit="10" fill="none"/></g><g clip-path="url(#clip4)"><text fill="#595959" font-family="Calibri,Calibri_MSFontService,sans-serif" font-weight="400" font-size="41" transform="matrix(1 0 0 1 3272.84 2535)">0</text></g><g clip-path="url(#clip5)"><text fill="#595959" font-family="Calibri,Calibri_MSFontService,sans-serif" font-weight="400" font-size="41" transform="matrix(1 0 0 1 3231.04 2466)">500</text></g><g clip-path="url(#clip6)"><text fill="#595959" font-family="Calibri,Calibri_MSFontService,sans-serif" font-weight="400" font-size="41" transform="matrix(1 0 0 1 3210.14 2396)">1000</text></g><g clip-path="url(#clip7)"><text fill="#595959" font-family="Calibri,Calibri_MSFontService,sans-serif" font-weight="400" font-size="41" transform="matrix(1 0 0 1 3210.14 2327)">1500</text></g><g clip-path="url(#clip8)"><text fill="#595959" font-family="Calibri,Calibri_MSFontService,sans-serif" font-weight="400" font-size="41" transform="matrix(1 0 0 1 3210.14 2258)">2000</text></g><g clip-path="url(#clip9)"><text fill="#595959" font-family="Calibri,Calibri_MSFontService,sans-serif" font-weight="400" font-size="41" transform="matrix(1 0 0 1 3210.14 2189)">2500</text></g><g clip-path="url(#clip10)"><text fill="#595959" font-family="Calibri,Calibri_MSFontService,sans-serif" font-weight="400" font-size="41" transform="matrix(1 0 0 1 3210.14 2120)">3000</text></g><g clip-path="url(#clip11)"><text fill="#595959" font-family="Calibri,Calibri_MSFontService,sans-serif" font-weight="400" font-size="41" transform="matrix(1 0 0 1 3210.14 2051)">3500</text></g><g clip-path="url(#clip12)"><text fill="#595959" font-family="Calibri,Calibri_MSFontService,sans-serif" font-weight="400" font-size="41" transform="matrix(1 0 0 1 3210.14 1982)">4000</text></g><g clip-path="url(#clip13)"><text fill="#595959" font-family="Calibri,Calibri_MSFontService,sans-serif" font-weight="400" font-size="41" transform="matrix(1 0 0 1 3210.14 1913)">4500</text></g><g clip-path="url(#clip14)"><text fill="#595959" font-family="Calibri,Calibri_MSFontService,sans-serif" font-weight="400" font-size="41" transform="matrix(1 0 0 1 3210.14 1844)">5000</text></g><g clip-path="url(#clip15)"><text fill="#595959" font-family="Calibri,Calibri_MSFontService,sans-serif" font-weight="400" font-size="41" transform="matrix(6.12323e-17 -1 1 6.12323e-17 3350.63 2570)">0</text></g><g clip-path="url(#clip16)"><text fill="#595959" font-family="Calibri,Calibri_MSFontService,sans-serif" font-weight="400" font-size="41" transform="matrix(6.12323e-17 -1 1 6.12323e-17 3408.16 2601)">1,2</text></g><g clip-path="url(#clip17)"><text fill="#595959" font-family="Calibri,Calibri_MSFontService,sans-serif" font-weight="400" font-size="41" transform="matrix(6.12323e-17 -1 1 6.12323e-17 3465.69 2601)">2,4</text></g><g clip-path="url(#clip18)"><text fill="#595959" font-family="Calibri,Calibri_MSFontService,sans-serif" font-weight="400" font-size="41" transform="matrix(6.12323e-17 -1 1 6.12323e-17 3523.23 2601)">3,6</text></g><g clip-path="url(#clip19)"><text fill="#595959" font-family="Calibri,Calibri_MSFontService,sans-serif" font-weight="400" font-size="41" transform="matrix(6.12323e-17 -1 1 6.12323e-17 3580.76 2601)">4,8</text></g><g clip-path="url(#clip20)"><text fill="#595959" font-family="Calibri,Calibri_MSFontService,sans-serif" font-weight="400" font-size="41" transform="matrix(6.12323e-17 -1 1 6.12323e-17 3638.29 2570)">6</text></g><g clip-path="url(#clip21)"><text fill="#595959" font-family="Calibri,Calibri_MSFontService,sans-serif" font-weight="400" font-size="41" transform="matrix(6.12323e-17 -1 1 6.12323e-17 3695.83 2601)">7,2</text></g><g clip-path="url(#clip22)"><text fill="#595959" font-family="Calibri,Calibri_MSFontService,sans-serif" font-weight="400" font-size="41" transform="matrix(6.12323e-17 -1 1 6.12323e-17 3753.36 2601)">8,4</text></g><g clip-path="url(#clip23)"><text fill="#595959" font-family="Calibri,Calibri_MSFontService,sans-serif" font-weight="400" font-size="41" transform="matrix(6.12323e-17 -1 1 6.12323e-17 3810.89 2601)">9,6</text></g><g clip-path="url(#clip24)"><text fill="#595959" font-family="Calibri,Calibri_MSFontService,sans-serif" font-weight="400" font-size="41" transform="matrix(6.12323e-17 -1 1 6.12323e-17 3868.43 2622)">10,8</text></g><g clip-path="url(#clip25)"><text fill="#595959" font-family="Calibri,Calibri_MSFontService,sans-serif" font-weight="400" font-size="41" transform="matrix(6.12323e-17 -1 1 6.12323e-17 3925.96 2591)">12</text></g><g clip-path="url(#clip26)"><text fill="#595959" font-family="Calibri,Calibri_MSFontService,sans-serif" font-weight="400" font-size="41" transform="matrix(6.12323e-17 -1 1 6.12323e-17 3983.5 2622)">13,2</text></g><g clip-path="url(#clip27)"><text fill="#595959" font-family="Calibri,Calibri_MSFontService,sans-serif" font-weight="400" font-size="41" transform="matrix(6.12323e-17 -1 1 6.12323e-17 4041.03 2622)">14,4</text></g><g clip-path="url(#clip28)"><text fill="#595959" font-family="Calibri,Calibri_MSFontService,sans-serif" font-weight="400" font-size="41" transform="matrix(6.12323e-17 -1 1 6.12323e-17 4098.56 2622)">15,6</text></g><g clip-path="url(#clip29)"><text fill="#595959" font-family="Calibri,Calibri_MSFontService,sans-serif" font-weight="400" font-size="41" transform="matrix(6.12323e-17 -1 1 6.12323e-17 4156.1 2622)">16,8</text></g><g clip-path="url(#clip30)"><text fill="#595959" font-family="Calibri,Calibri_MSFontService,sans-serif" font-weight="400" font-size="41" transform="matrix(6.12323e-17 -1 1 6.12323e-17 4213.63 2591)">18</text></g><g clip-path="url(#clip31)"><text fill="#595959" font-family="Calibri,Calibri_MSFontService,sans-serif" font-weight="400" font-size="41" transform="matrix(6.12323e-17 -1 1 6.12323e-17 4271.16 2622)">19,2</text></g><g clip-path="url(#clip32)"><text fill="#595959" font-family="Calibri,Calibri_MSFontService,sans-serif" font-weight="400" font-size="41" transform="matrix(6.12323e-17 -1 1 6.12323e-17 4328.7 2622)">20,4</text></g><g clip-path="url(#clip33)"><text fill="#595959" font-family="Calibri,Calibri_MSFontService,sans-serif" font-weight="400" font-size="41" transform="matrix(6.12323e-17 -1 1 6.12323e-17 4386.23 2622)">21,6</text></g><g clip-path="url(#clip34)"><text fill="#595959" font-family="Calibri,Calibri_MSFontService,sans-serif" font-weight="400" font-size="41" transform="matrix(6.12323e-17 -1 1 6.12323e-17 4443.76 2622)">22,8</text></g><g clip-path="url(#clip35)"><text fill="#595959" font-family="Calibri,Calibri_MSFontService,sans-serif" font-weight="400" font-size="41" transform="matrix(6.12323e-17 -1 1 6.12323e-17 4501.3 2591)">24</text></g><g clip-path="url(#clip36)"><text fill="#595959" font-family="Calibri,Calibri_MSFontService,sans-serif" font-weight="400" font-size="41" transform="matrix(6.12323e-17 -1 1 6.12323e-17 4558.83 2622)">25,2</text></g><g clip-path="url(#clip37)"><text fill="#595959" font-family="Calibri,Calibri_MSFontService,sans-serif" font-weight="400" font-size="41" transform="matrix(6.12323e-17 -1 1 6.12323e-17 4616.36 2622)">26,4</text></g><g clip-path="url(#clip38)"><text fill="#595959" font-family="Calibri,Calibri_MSFontService,sans-serif" font-weight="400" font-size="41" transform="matrix(6.12323e-17 -1 1 6.12323e-17 4673.9 2622)">27,6</text></g><g clip-path="url(#clip39)"><text fill="#595959" font-family="Calibri,Calibri_MSFontService,sans-serif" font-weight="400" font-size="41" transform="matrix(6.12323e-17 -1 1 6.12323e-17 4731.43 2622)">28,8</text></g><g clip-path="url(#clip40)"><text fill="#595959" font-family="Calibri,Calibri_MSFontService,sans-serif" font-weight="400" font-size="41" transform="matrix(6.12323e-17 -1 1 6.12323e-17 4788.96 2591)">30</text></g><g clip-path="url(#clip41)"><text fill="#595959" font-family="Calibri,Calibri_MSFontService,sans-serif" font-weight="400" font-size="64" transform="matrix(1 0 0 1 3718.09 1757)">Posición z instantánea</text></g><rect x="3180.5" y="1662.5" width="1650" height="990" stroke="#D9D9D9" stroke-width="3.4375" stroke-linejoin="round" stroke-miterlimit="10" fill="none"/></g></svg>