<svg width="1653" height="993" xmlns="http://www.w3.org/2000/svg" xmlns:xlink="http://www.w3.org/1999/xlink" xml:space="preserve" overflow="hidden"><defs><clipPath id="clip0"><rect x="3190" y="1658" width="1653" height="993"/></clipPath><clipPath id="clip1"><rect x="3190" y="1659" width="1650" height="990"/></clipPath><clipPath id="clip2"><rect x="3190" y="1659" width="1650" height="990"/></clipPath><clipPath id="clip3"><rect x="3439" y="1829" width="1354" height="597"/></clipPath><clipPath id="clip4"><rect x="3190" y="1659" width="1650" height="990"/></clipPath><clipPath id="clip5"><rect x="3190" y="1659" width="1650" height="990"/></clipPath><clipPath id="clip6"><rect x="3190" y="1659" width="1650" height="990"/></clipPath><clipPath id="clip7"><rect x="3190" y="1659" width="1650" height="990"/></clipPath><clipPath id="clip8"><rect x="3190" y="1659" width="1650" height="990"/></clipPath><clipPath id="clip9"><rect x="3190" y="1659" width="1650" height="990"/></clipPath><clipPath id="clip10"><rect x="3190" y="1659" width="1650" height="990"/></clipPath><clipPath id="clip11"><rect x="3190" y="1659" width="1650" height="990"/></clipPath><clipPath id="clip12"><rect x="3190" y="1659" width="1650" height="990"/></clipPath><clipPath id="clip13"><rect x="3190" y="1659" width="1650" height="990"/></clipPath><clipPath id="clip14"><rect x="3190" y="1659" width="1650" height="990"/></clipPath><clipPath id="clip15"><rect x="3190" y="1659" width="1650" height="990"/></clipPath><clipPath id="clip16"><rect x="3190" y="1659" width="1650" height="990"/></clipPath><clipPath id="clip17"><rect x="3190" y="1659" width="1650" height="990"/></clipPath><clipPath id="clip18"><rect x="3190" y="1659" width="1650" height="990"/></clipPath><clipPath id="clip19"><rect x="3190" y="1659" width="1650" height="990"/></clipPath><clipPath id="clip20"><rect x="3190" y="1659" width="1650" height="990"/></clipPath><clipPath id="clip21"><rect x="3190" y="1659" width="1650" height="990"/></clipPath><clipPath id="clip22"><rect x="3190" y="1659" width="1650" height="990"/></clipPath><clipPath id="clip23"><rect x="3190" y="1659" width="1650" height="990"/></clipPath><clipPath id="clip24"><rect x="3190" y="1659" width="1650" height="990"/></clipPath><clipPath id="clip25"><rect x="3190" y="1659" width="1650" height="990"/></clipPath><clipPath id="clip26"><rect x="3190" y="1659" width="1650" height="990"/></clipPath><clipPath id="clip27"><rect x="3190" y="1659" width="1650" height="990"/></clipPath><clipPath id="clip28"><rect x="3190" y="1659" width="1650" height="990"/></clipPath><clipPath id="clip29"><rect x="3190" y="1659" width="1650" height="990"/></clipPath><clipPath id="clip30"><rect x="3190" y="1659" width="1650" height="990"/></clipPath><clipPath id="clip31"><rect x="3190" y="1659" width="1650" height="990"/></clipPath><clipPath id="clip32"><rect x="3190" y="1659" width="1650" height="990"/></clipPath><clipPath id="clip33"><rect x="3190" y="1659" width="1650" height="990"/></clipPath><clipPath id="clip34"><rect x="3190" y="1659" width="1650" height="990"/></clipPath><clipPath id="clip35"><rect x="3190" y="1659" width="1650" height="990"/></clipPath><clipPath id="clip36"><rect x="3190" y="1659" width="1650" height="990"/></clipPath><clipPath id="clip37"><rect x="3190" y="1659" width="1650" height="990"/></clipPath><clipPath id="clip38"><rect x="3190" y="1659" width="1650" height="990"/></clipPath><clipPath id="clip39"><rect x="3190" y="1659" width="1650" height="990"/></clipPath><clipPath id="clip40"><rect x="3190" y="1659" width="1650" height="990"/></clipPath><clipPath id="clip41"><rect x="3190" y="1659" width="1650" height="990"/></clipPath><clipPath id="clip42"><rect x="3190" y="1659" width="1650" height="990"/></clipPath><clipPath id="clip43"><rect x="3190" y="1659" width="1650" height="990"/></clipPath></defs><g clip-path="url(#clip0)" transform="translate(-3190 -1658)"><rect x="3191" y="1659" width="1650" height="990" fill="#FFFFFF"/><g clip-path="url(#clip1)"><path d="M3439.5 2363.58 4790.5 2363.58M3439.5 2304.58 4790.5 2304.58M3439.5 2245.57 4790.5 2245.57M3439.5 2185.57 4790.5 2185.57M3439.5 2126.57 4790.5 2126.57M3439.5 2066.57 4790.5 2066.57M3439.5 2007.57 4790.5 2007.57M3439.5 1948.56 4790.5 1948.56M3439.5 1888.56 4790.5 1888.56M3439.5 1829.5 4790.5 1829.5" stroke="#D9D9D9" stroke-width="3.4375" stroke-linejoin="round" stroke-miterlimit="10" fill="none"/></g><g clip-path="url(#clip2)"><path d="M3439.5 2423.5 4790.5 2423.5" stroke="#D9D9D9" stroke-width="3.4375" stroke-linejoin="round" stroke-miterlimit="10" fill="none" fill-rule="evenodd"/></g><g clip-path="url(#clip3)"><path d="M3444 2423 3453.11 2423.08 3462.11 2423.08 3471.11 2423.08 3480.11 2423.08 3489.11 2423.08 3498.11 2422.08 3507.11 2422.08 3516.12 2422.08 3525.12 2421.08 3534.12 2421.08 3543.12 2420.08 3551.12 2420.08 3560.12 2419.08 3569.12 2418.08 3578.12 2418.08 3587.12 2417.08 3596.12 2416.08 3605.12 2415.08 3614.12 2415.08 3623.12 2414.08 3632.12 2413.08 3641.12 2412.08 3650.12 2411.08 3659.12 2409.08 3668.12 2408.08 3677.12 2407.08 3686.12 2406.08 3695.12 2405.08 3704.12 2403.08 3712.12 2402.08 3721.12 2400.08 3730.12 2399.08 3739.12 2397.08 3748.12 2396.08 3757.12 2394.08 3766.12 2392.08 3775.12 2391.08 3784.12 2389.08 3793.12 2387.08 3802.12 2385.08 3811.12 2383.08 3820.13 2381.08 3829.13 2379.08 3838.13 2377.08 3847.13 2375.08 3856.13 2373.08 3865.13 2371.08 3873.13 2368.08 3882.13 2366.08 3891.13 2364.08 3900.13 2361.08 3909.13 2359.08 3918.13 2356.08 3927.13 2354.08 3936.13 2351.08 3945.13 2349.08 3954.13 2346.08 3963.13 2343.08 3972.13 2340.08 3981.13 2338.08 3990.13 2335.08 3999.13 2332.08 4008.13 2329.08 4017.13 2326.08 4026.13 2323.08 4035.13 2320.08 4043.13 2317.08 4052.13 2313.08 4061.13 2310.08 4070.13 2307.08 4079.13 2303.08 4088.13 2300.08 4097.13 2297.08 4106.13 2293.08 4115.13 2290.08 4124.14 2286.07 4133.14 2282.07 4142.14 2279.07 4151.14 2275.07 4160.14 2271.07 4169.14 2267.07 4178.14 2263.07 4187.14 2260.07 4196.14 2256.07 4204.14 2252.07 4213.14 2247.07 4222.14 2243.07 4231.14 2239.07 4240.14 2235.07 4249.14 2231.07 4258.14 2226.07 4267.14 2222.07 4276.14 2218.07 4285.14 2213.07 4294.14 2209.07 4303.14 2204.07 4312.14 2200.07 4321.14 2195.07 4330.14 2190.07 4339.14 2186.07 4348.14 2181.07 4357.14 2176.07 4365.14 2171.07 4374.14 2166.07 4383.14 2161.07 4392.14 2156.07 4401.14 2151.07 4410.14 2146.07 4419.15 2141.07 4428.15 2136.07 4437.15 2130.07 4446.15 2125.07 4455.15 2120.07 4464.15 2114.07 4473.15 2109.07 4482.15 2104.07 4491.15 2098.07 4500.15 2092.07 4509.15 2087.07 4518.15 2081.07 4526.15 2075.07 4535.15 2070.07 4544.15 2064.07 4553.15 2058.07 4562.15 2052.07 4571.15 2046.07 4580.15 2040.07 4589.15 2034.07 4598.15 2028.07 4607.15 2022.07 4616.15 2016.07 4625.15 2009.07 4634.15 2003.07 4643.15 1997.07 4652.15 1990.07 4661.15 1984.07 4670.15 1977.06 4679.15 1971.06 4687.15 1964.06 4696.15 1958.06 4705.15 1951.06 4714.15 1944.06 4723.15 1937.06 4732.16 1931.06 4741.16 1924.06 4750.16 1917.06 4759.16 1910.06 4768.16 1903.06 4777.16 1896.06 4786 1889" stroke="#4472C4" stroke-width="10.3125" stroke-linecap="round" stroke-linejoin="round" stroke-miterlimit="10" fill="none"/></g><g clip-path="url(#clip4)"><text fill="#595959" font-family="Calibri,Calibri_MSFontService,sans-serif" font-weight="400" font-size="41" transform="matrix(1 0 0 1 3380.61 2435)">0</text></g><g clip-path="url(#clip5)"><text fill="#595959" font-family="Calibri,Calibri_MSFontService,sans-serif" font-weight="400" font-size="41" transform="matrix(1 0 0 1 3338.81 2375)">500</text></g><g clip-path="url(#clip6)"><text fill="#595959" font-family="Calibri,Calibri_MSFontService,sans-serif" font-weight="400" font-size="41" transform="matrix(1 0 0 1 3317.91 2316)">1000</text></g><g clip-path="url(#clip7)"><text fill="#595959" font-family="Calibri,Calibri_MSFontService,sans-serif" font-weight="400" font-size="41" transform="matrix(1 0 0 1 3317.91 2257)">1500</text></g><g clip-path="url(#clip8)"><text fill="#595959" font-family="Calibri,Calibri_MSFontService,sans-serif" font-weight="400" font-size="41" transform="matrix(1 0 0 1 3317.91 2197)">2000</text></g><g clip-path="url(#clip9)"><text fill="#595959" font-family="Calibri,Calibri_MSFontService,sans-serif" font-weight="400" font-size="41" transform="matrix(1 0 0 1 3317.91 2138)">2500</text></g><g clip-path="url(#clip10)"><text fill="#595959" font-family="Calibri,Calibri_MSFontService,sans-serif" font-weight="400" font-size="41" transform="matrix(1 0 0 1 3317.91 2078)">3000</text></g><g clip-path="url(#clip11)"><text fill="#595959" font-family="Calibri,Calibri_MSFontService,sans-serif" font-weight="400" font-size="41" transform="matrix(1 0 0 1 3317.91 2019)">3500</text></g><g clip-path="url(#clip12)"><text fill="#595959" font-family="Calibri,Calibri_MSFontService,sans-serif" font-weight="400" font-size="41" transform="matrix(1 0 0 1 3317.91 1960)">4000</text></g><g clip-path="url(#clip13)"><text fill="#595959" font-family="Calibri,Calibri_MSFontService,sans-serif" font-weight="400" font-size="41" transform="matrix(1 0 0 1 3317.91 1900)">4500</text></g><g clip-path="url(#clip14)"><text fill="#595959" font-family="Calibri,Calibri_MSFontService,sans-serif" font-weight="400" font-size="41" transform="matrix(1 0 0 1 3317.91 1841)">5000</text></g><g clip-path="url(#clip15)"><text fill="#595959" font-family="Calibri,Calibri_MSFontService,sans-serif" font-weight="400" font-size="41" transform="matrix(6.12323e-17 -1 1 6.12323e-17 3458.07 2470)">0</text></g><g clip-path="url(#clip16)"><text fill="#595959" font-family="Calibri,Calibri_MSFontService,sans-serif" font-weight="400" font-size="41" transform="matrix(6.12323e-17 -1 1 6.12323e-17 3511.74 2502)">1,2</text></g><g clip-path="url(#clip17)"><text fill="#595959" font-family="Calibri,Calibri_MSFontService,sans-serif" font-weight="400" font-size="41" transform="matrix(6.12323e-17 -1 1 6.12323e-17 3565.42 2502)">2,4</text></g><g clip-path="url(#clip18)"><text fill="#595959" font-family="Calibri,Calibri_MSFontService,sans-serif" font-weight="400" font-size="41" transform="matrix(6.12323e-17 -1 1 6.12323e-17 3619.09 2502)">3,6</text></g><g clip-path="url(#clip19)"><text fill="#595959" font-family="Calibri,Calibri_MSFontService,sans-serif" font-weight="400" font-size="41" transform="matrix(6.12323e-17 -1 1 6.12323e-17 3672.76 2502)">4,8</text></g><g clip-path="url(#clip20)"><text fill="#595959" font-family="Calibri,Calibri_MSFontService,sans-serif" font-weight="400" font-size="41" transform="matrix(6.12323e-17 -1 1 6.12323e-17 3726.43 2470)">6</text></g><g clip-path="url(#clip21)"><text fill="#595959" font-family="Calibri,Calibri_MSFontService,sans-serif" font-weight="400" font-size="41" transform="matrix(6.12323e-17 -1 1 6.12323e-17 3780.1 2502)">7,2</text></g><g clip-path="url(#clip22)"><text fill="#595959" font-family="Calibri,Calibri_MSFontService,sans-serif" font-weight="400" font-size="41" transform="matrix(6.12323e-17 -1 1 6.12323e-17 3833.77 2502)">8,4</text></g><g clip-path="url(#clip23)"><text fill="#595959" font-family="Calibri,Calibri_MSFontService,sans-serif" font-weight="400" font-size="41" transform="matrix(6.12323e-17 -1 1 6.12323e-17 3887.45 2502)">9,6</text></g><g clip-path="url(#clip24)"><text fill="#595959" font-family="Calibri,Calibri_MSFontService,sans-serif" font-weight="400" font-size="41" transform="matrix(6.12323e-17 -1 1 6.12323e-17 3941.12 2522)">10,8</text></g><g clip-path="url(#clip25)"><text fill="#595959" font-family="Calibri,Calibri_MSFontService,sans-serif" font-weight="400" font-size="41" transform="matrix(6.12323e-17 -1 1 6.12323e-17 3994.79 2491)">12</text></g><g clip-path="url(#clip26)"><text fill="#595959" font-family="Calibri,Calibri_MSFontService,sans-serif" font-weight="400" font-size="41" transform="matrix(6.12323e-17 -1 1 6.12323e-17 4048.46 2522)">13,2</text></g><g clip-path="url(#clip27)"><text fill="#595959" font-family="Calibri,Calibri_MSFontService,sans-serif" font-weight="400" font-size="41" transform="matrix(6.12323e-17 -1 1 6.12323e-17 4102.13 2522)">14,4</text></g><g clip-path="url(#clip28)"><text fill="#595959" font-family="Calibri,Calibri_MSFontService,sans-serif" font-weight="400" font-size="41" transform="matrix(6.12323e-17 -1 1 6.12323e-17 4155.8 2522)">15,6</text></g><g clip-path="url(#clip29)"><text fill="#595959" font-family="Calibri,Calibri_MSFontService,sans-serif" font-weight="400" font-size="41" transform="matrix(6.12323e-17 -1 1 6.12323e-17 4209.47 2522)">16,8</text></g><g clip-path="url(#clip30)"><text fill="#595959" font-family="Calibri,Calibri_MSFontService,sans-serif" font-weight="400" font-size="41" transform="matrix(6.12323e-17 -1 1 6.12323e-17 4263.15 2491)">18</text></g><g clip-path="url(#clip31)"><text fill="#595959" font-family="Calibri,Calibri_MSFontService,sans-serif" font-weight="400" font-size="41" transform="matrix(6.12323e-17 -1 1 6.12323e-17 4316.82 2522)">19,2</text></g><g clip-path="url(#clip32)"><text fill="#595959" font-family="Calibri,Calibri_MSFontService,sans-serif" font-weight="400" font-size="41" transform="matrix(6.12323e-17 -1 1 6.12323e-17 4370.49 2522)">20,4</text></g><g clip-path="url(#clip33)"><text fill="#595959" font-family="Calibri,Calibri_MSFontService,sans-serif" font-weight="400" font-size="41" transform="matrix(6.12323e-17 -1 1 6.12323e-17 4424.16 2522)">21,6</text></g><g clip-path="url(#clip34)"><text fill="#595959" font-family="Calibri,Calibri_MSFontService,sans-serif" font-weight="400" font-size="41" transform="matrix(6.12323e-17 -1 1 6.12323e-17 4477.83 2522)">22,8</text></g><g clip-path="url(#clip35)"><text fill="#595959" font-family="Calibri,Calibri_MSFontService,sans-serif" font-weight="400" font-size="41" transform="matrix(6.12323e-17 -1 1 6.12323e-17 4531.5 2491)">24</text></g><g clip-path="url(#clip36)"><text fill="#595959" font-family="Calibri,Calibri_MSFontService,sans-serif" font-weight="400" font-size="41" transform="matrix(6.12323e-17 -1 1 6.12323e-17 4585.18 2522)">25,2</text></g><g clip-path="url(#clip37)"><text fill="#595959" font-family="Calibri,Calibri_MSFontService,sans-serif" font-weight="400" font-size="41" transform="matrix(6.12323e-17 -1 1 6.12323e-17 4638.85 2522)">26,4</text></g><g clip-path="url(#clip38)"><text fill="#595959" font-family="Calibri,Calibri_MSFontService,sans-serif" font-weight="400" font-size="41" transform="matrix(6.12323e-17 -1 1 6.12323e-17 4692.52 2522)">27,6</text></g><g clip-path="url(#clip39)"><text fill="#595959" font-family="Calibri,Calibri_MSFontService,sans-serif" font-weight="400" font-size="41" transform="matrix(6.12323e-17 -1 1 6.12323e-17 4746.19 2522)">28,8</text></g><g clip-path="url(#clip40)"><text fill="#595959" font-family="Calibri,Calibri_MSFontService,sans-serif" font-weight="400" font-size="41" transform="matrix(6.12323e-17 -1 1 6.12323e-17 4799.86 2491)">30</text></g><g clip-path="url(#clip41)"><text fill="#595959" font-family="Calibri,Calibri_MSFontService,sans-serif" font-weight="400" font-size="46" transform="matrix(6.12323e-17 -1 1 6.12323e-17 3292.22 2255)">Posición z (m)</text></g><g clip-path="url(#clip42)"><text fill="#595959" font-family="Calibri,Calibri_MSFontService,sans-serif" font-weight="400" font-size="46" transform="matrix(1 0 0 1 4016.84 2580)">Tiempo (s)</text></g><g clip-path="url(#clip43)"><text fill="#595959" font-family="Calibri,Calibri_MSFontService,sans-serif" font-weight="400" font-size="64" transform="matrix(1 0 0 1 3728.66 1755)">Posición z instantánea</text></g><rect x="3191.5" y="1659.5" width="1650" height="990" stroke="#D9D9D9" stroke-width="3.4375" stroke-linejoin="round" stroke-miterlimit="10" fill="none"/></g></svg>