<svg width="1653" height="993" xmlns="http://www.w3.org/2000/svg" xmlns:xlink="http://www.w3.org/1999/xlink" xml:space="preserve" overflow="hidden"><defs><clipPath id="clip0"><rect x="3190" y="620" width="1653" height="993"/></clipPath><clipPath id="clip1"><rect x="3191" y="620" width="1650" height="990"/></clipPath><clipPath id="clip2"><rect x="3191" y="620" width="1650" height="990"/></clipPath><clipPath id="clip3"><rect x="3322" y="790" width="1472" height="695"/></clipPath><clipPath id="clip4"><rect x="3191" y="620" width="1650" height="990"/></clipPath><clipPath id="clip5"><rect x="3191" y="620" width="1650" height="990"/></clipPath><clipPath id="clip6"><rect x="3191" y="620" width="1650" height="990"/></clipPath><clipPath id="clip7"><rect x="3191" y="620" width="1650" height="990"/></clipPath><clipPath id="clip8"><rect x="3191" y="620" width="1650" height="990"/></clipPath><clipPath id="clip9"><rect x="3191" y="620" width="1650" height="990"/></clipPath><clipPath id="clip10"><rect x="3191" y="620" width="1650" height="990"/></clipPath><clipPath id="clip11"><rect x="3191" y="620" width="1650" height="990"/></clipPath><clipPath id="clip12"><rect x="3191" y="620" width="1650" height="990"/></clipPath><clipPath id="clip13"><rect x="3191" y="620" width="1650" height="990"/></clipPath><clipPath id="clip14"><rect x="3191" y="620" width="1650" height="990"/></clipPath><clipPath id="clip15"><rect x="3191" y="620" width="1650" height="990"/></clipPath><clipPath id="clip16"><rect x="3191" y="620" width="1650" height="990"/></clipPath><clipPath id="clip17"><rect x="3191" y="620" width="1650" height="990"/></clipPath><clipPath id="clip18"><rect x="3191" y="620" width="1650" height="990"/></clipPath><clipPath id="clip19"><rect x="3191" y="620" width="1650" height="990"/></clipPath><clipPath id="clip20"><rect x="3191" y="620" width="1650" height="990"/></clipPath><clipPath id="clip21"><rect x="3191" y="620" width="1650" height="990"/></clipPath><clipPath id="clip22"><rect x="3191" y="620" width="1650" height="990"/></clipPath><clipPath id="clip23"><rect x="3191" y="620" width="1650" height="990"/></clipPath><clipPath id="clip24"><rect x="3191" y="620" width="1650" height="990"/></clipPath><clipPath id="clip25"><rect x="3191" y="620" width="1650" height="990"/></clipPath><clipPath id="clip26"><rect x="3191" y="620" width="1650" height="990"/></clipPath><clipPath id="clip27"><rect x="3191" y="620" width="1650" height="990"/></clipPath><clipPath id="clip28"><rect x="3191" y="620" width="1650" height="990"/></clipPath><clipPath id="clip29"><rect x="3191" y="620" width="1650" height="990"/></clipPath><clipPath id="clip30"><rect x="3191" y="620" width="1650" height="990"/></clipPath><clipPath id="clip31"><rect x="3191" y="620" width="1650" height="990"/></clipPath><clipPath id="clip32"><rect x="3191" y="620" width="1650" height="990"/></clipPath><clipPath id="clip33"><rect x="3191" y="620" width="1650" height="990"/></clipPath><clipPath id="clip34"><rect x="3191" y="620" width="1650" height="990"/></clipPath><clipPath id="clip35"><rect x="3191" y="620" width="1650" height="990"/></clipPath><clipPath id="clip36"><rect x="3191" y="620" width="1650" height="990"/></clipPath><clipPath id="clip37"><rect x="3191" y="620" width="1650" height="990"/></clipPath><clipPath id="clip38"><rect x="3191" y="620" width="1650" height="990"/></clipPath></defs><g clip-path="url(#clip0)" transform="translate(-3190 -620)"><rect x="3191" y="621" width="1650" height="990" fill="#FFFFFF"/><g clip-path="url(#clip1)"><path d="M3322.5 1382.55 4790.5 1382.55M3322.5 1284.54 4790.5 1284.54M3322.5 1185.54 4790.5 1185.54M3322.5 1086.54 4790.5 1086.54M3322.5 987.533 4790.5 987.533M3322.5 889.529 4790.5 889.529M3322.5 790.5 4790.5 790.5" stroke="#D9D9D9" stroke-width="3.4375" stroke-linejoin="round" stroke-miterlimit="10" fill="none"/></g><g clip-path="url(#clip2)"><path d="M3322.5 1481.5 4790.5 1481.5" stroke="#D9D9D9" stroke-width="3.4375" stroke-linejoin="round" stroke-miterlimit="10" fill="none" fill-rule="evenodd"/></g><g clip-path="url(#clip3)"><path d="M3327 1482 3337.11 1478.05 3346.11 1474.05 3356.11 1470.05 3366.11 1466.05 3375.11 1462.05 3385.11 1458.05 3395.11 1454.05 3405.11 1450.05 3414.11 1446.05 3424.11 1442.05 3434.11 1438.05 3444.11 1434.05 3453.11 1430.05 3463.11 1426.05 3473.11 1422.05 3482.11 1418.05 3492.11 1414.05 3502.11 1410.05 3512.12 1407.05 3521.12 1403.05 3531.12 1399.05 3541.12 1395.05 3551.12 1391.05 3560.12 1387.05 3570.12 1383.05 3580.12 1379.05 3589.12 1375.05 3599.12 1371.04 3609.12 1367.04 3619.12 1363.04 3628.12 1359.04 3638.12 1355.04 3648.12 1351.04 3658.12 1347.04 3667.12 1343.04 3677.12 1339.04 3687.12 1335.04 3696.12 1331.04 3706.12 1328.04 3716.12 1324.04 3726.12 1320.04 3735.12 1316.04 3745.12 1312.04 3755.12 1308.04 3765.12 1304.04 3774.12 1300.04 3784.12 1296.04 3794.12 1292.04 3803.12 1288.04 3813.13 1284.04 3823.13 1280.04 3833.13 1276.04 3842.13 1272.04 3852.13 1268.04 3862.13 1264.04 3872.13 1260.04 3881.13 1256.04 3891.13 1253.04 3901.13 1249.04 3910.13 1245.04 3920.13 1241.04 3930.13 1237.04 3940.13 1233.04 3949.13 1229.04 3959.13 1225.04 3969.13 1221.04 3979.13 1217.04 3988.13 1213.04 3998.13 1209.04 4008.13 1205.04 4017.13 1201.04 4027.13 1197.04 4037.13 1193.04 4047.13 1189.04 4056.13 1185.04 4066.13 1181.04 4076.13 1177.04 4086.13 1174.04 4095.13 1170.04 4105.13 1166.04 4115.14 1162.04 4124.14 1158.04 4134.14 1154.04 4144.14 1150.04 4154.14 1146.04 4163.14 1142.04 4173.14 1138.04 4183.14 1134.04 4193.14 1130.04 4202.14 1126.04 4212.14 1122.04 4222.14 1118.04 4231.14 1114.04 4241.14 1110.04 4251.14 1106.04 4261.14 1102.04 4270.14 1099.04 4280.14 1095.04 4290.14 1091.04 4300.14 1087.04 4309.14 1083.04 4319.14 1079.04 4329.14 1075.04 4338.14 1071.04 4348.14 1067.04 4358.14 1063.03 4368.14 1059.03 4377.14 1055.03 4387.14 1051.03 4397.14 1047.03 4407.14 1043.03 4416.15 1039.03 4426.15 1035.03 4436.15 1031.03 4445.15 1027.03 4455.15 1023.03 4465.15 1020.03 4475.15 1016.03 4484.15 1012.03 4494.15 1008.03 4504.15 1004.03 4514.15 1000.03 4523.15 996.033 4533.15 992.033 4543.15 988.032 4552.15 984.032 4562.15 980.032 4572.15 976.032 4582.15 972.032 4591.15 968.032 4601.15 964.032 4611.15 960.031 4621.15 956.031 4630.15 952.031 4640.15 948.031 4650.15 945.031 4659.15 941.031 4669.15 937.031 4679.15 933.031 4689.15 929.03 4698.15 925.03 4708.15 921.03 4718.15 917.03 4728.16 913.03 4737.16 909.03 4747.16 905.03 4757.16 901.03 4766.16 897.029 4776.16 893.029 4786 889" stroke="#4472C4" stroke-width="10.3125" stroke-linecap="round" stroke-linejoin="round" stroke-miterlimit="10" fill="none"/></g><g clip-path="url(#clip4)"><text fill="#595959" font-family="Calibri,Calibri_MSFontService,sans-serif" font-weight="400" font-size="41" transform="matrix(1 0 0 1 3262.93 1493)">0</text></g><g clip-path="url(#clip5)"><text fill="#595959" font-family="Calibri,Calibri_MSFontService,sans-serif" font-weight="400" font-size="41" transform="matrix(1 0 0 1 3242.02 1394)">50</text></g><g clip-path="url(#clip6)"><text fill="#595959" font-family="Calibri,Calibri_MSFontService,sans-serif" font-weight="400" font-size="41" transform="matrix(1 0 0 1 3221.12 1296)">100</text></g><g clip-path="url(#clip7)"><text fill="#595959" font-family="Calibri,Calibri_MSFontService,sans-serif" font-weight="400" font-size="41" transform="matrix(1 0 0 1 3221.12 1197)">150</text></g><g clip-path="url(#clip8)"><text fill="#595959" font-family="Calibri,Calibri_MSFontService,sans-serif" font-weight="400" font-size="41" transform="matrix(1 0 0 1 3221.12 1098)">200</text></g><g clip-path="url(#clip9)"><text fill="#595959" font-family="Calibri,Calibri_MSFontService,sans-serif" font-weight="400" font-size="41" transform="matrix(1 0 0 1 3221.12 1000)">250</text></g><g clip-path="url(#clip10)"><text fill="#595959" font-family="Calibri,Calibri_MSFontService,sans-serif" font-weight="400" font-size="41" transform="matrix(1 0 0 1 3221.12 901)">300</text></g><g clip-path="url(#clip11)"><text fill="#595959" font-family="Calibri,Calibri_MSFontService,sans-serif" font-weight="400" font-size="41" transform="matrix(1 0 0 1 3221.12 802)">350</text></g><g clip-path="url(#clip12)"><text fill="#595959" font-family="Calibri,Calibri_MSFontService,sans-serif" font-weight="400" font-size="41" transform="matrix(6.12323e-17 -1 1 6.12323e-17 3340.78 1529)">0</text></g><g clip-path="url(#clip13)"><text fill="#595959" font-family="Calibri,Calibri_MSFontService,sans-serif" font-weight="400" font-size="41" transform="matrix(6.12323e-17 -1 1 6.12323e-17 3399.15 1560)">1,2</text></g><g clip-path="url(#clip14)"><text fill="#595959" font-family="Calibri,Calibri_MSFontService,sans-serif" font-weight="400" font-size="41" transform="matrix(6.12323e-17 -1 1 6.12323e-17 3457.51 1560)">2,4</text></g><g clip-path="url(#clip15)"><text fill="#595959" font-family="Calibri,Calibri_MSFontService,sans-serif" font-weight="400" font-size="41" transform="matrix(6.12323e-17 -1 1 6.12323e-17 3515.87 1560)">3,6</text></g><g clip-path="url(#clip16)"><text fill="#595959" font-family="Calibri,Calibri_MSFontService,sans-serif" font-weight="400" font-size="41" transform="matrix(6.12323e-17 -1 1 6.12323e-17 3574.24 1560)">4,8</text></g><g clip-path="url(#clip17)"><text fill="#595959" font-family="Calibri,Calibri_MSFontService,sans-serif" font-weight="400" font-size="41" transform="matrix(6.12323e-17 -1 1 6.12323e-17 3632.6 1529)">6</text></g><g clip-path="url(#clip18)"><text fill="#595959" font-family="Calibri,Calibri_MSFontService,sans-serif" font-weight="400" font-size="41" transform="matrix(6.12323e-17 -1 1 6.12323e-17 3690.96 1560)">7,2</text></g><g clip-path="url(#clip19)"><text fill="#595959" font-family="Calibri,Calibri_MSFontService,sans-serif" font-weight="400" font-size="41" transform="matrix(6.12323e-17 -1 1 6.12323e-17 3749.33 1560)">8,4</text></g><g clip-path="url(#clip20)"><text fill="#595959" font-family="Calibri,Calibri_MSFontService,sans-serif" font-weight="400" font-size="41" transform="matrix(6.12323e-17 -1 1 6.12323e-17 3807.69 1560)">9,6</text></g><g clip-path="url(#clip21)"><text fill="#595959" font-family="Calibri,Calibri_MSFontService,sans-serif" font-weight="400" font-size="41" transform="matrix(6.12323e-17 -1 1 6.12323e-17 3866.06 1581)">10,8</text></g><g clip-path="url(#clip22)"><text fill="#595959" font-family="Calibri,Calibri_MSFontService,sans-serif" font-weight="400" font-size="41" transform="matrix(6.12323e-17 -1 1 6.12323e-17 3924.42 1550)">12</text></g><g clip-path="url(#clip23)"><text fill="#595959" font-family="Calibri,Calibri_MSFontService,sans-serif" font-weight="400" font-size="41" transform="matrix(6.12323e-17 -1 1 6.12323e-17 3982.78 1581)">13,2</text></g><g clip-path="url(#clip24)"><text fill="#595959" font-family="Calibri,Calibri_MSFontService,sans-serif" font-weight="400" font-size="41" transform="matrix(6.12323e-17 -1 1 6.12323e-17 4041.15 1581)">14,4</text></g><g clip-path="url(#clip25)"><text fill="#595959" font-family="Calibri,Calibri_MSFontService,sans-serif" font-weight="400" font-size="41" transform="matrix(6.12323e-17 -1 1 6.12323e-17 4099.51 1581)">15,6</text></g><g clip-path="url(#clip26)"><text fill="#595959" font-family="Calibri,Calibri_MSFontService,sans-serif" font-weight="400" font-size="41" transform="matrix(6.12323e-17 -1 1 6.12323e-17 4157.88 1581)">16,8</text></g><g clip-path="url(#clip27)"><text fill="#595959" font-family="Calibri,Calibri_MSFontService,sans-serif" font-weight="400" font-size="41" transform="matrix(6.12323e-17 -1 1 6.12323e-17 4216.24 1550)">18</text></g><g clip-path="url(#clip28)"><text fill="#595959" font-family="Calibri,Calibri_MSFontService,sans-serif" font-weight="400" font-size="41" transform="matrix(6.12323e-17 -1 1 6.12323e-17 4274.6 1581)">19,2</text></g><g clip-path="url(#clip29)"><text fill="#595959" font-family="Calibri,Calibri_MSFontService,sans-serif" font-weight="400" font-size="41" transform="matrix(6.12323e-17 -1 1 6.12323e-17 4332.97 1581)">20,4</text></g><g clip-path="url(#clip30)"><text fill="#595959" font-family="Calibri,Calibri_MSFontService,sans-serif" font-weight="400" font-size="41" transform="matrix(6.12323e-17 -1 1 6.12323e-17 4391.33 1581)">21,6</text></g><g clip-path="url(#clip31)"><text fill="#595959" font-family="Calibri,Calibri_MSFontService,sans-serif" font-weight="400" font-size="41" transform="matrix(6.12323e-17 -1 1 6.12323e-17 4449.7 1581)">22,8</text></g><g clip-path="url(#clip32)"><text fill="#595959" font-family="Calibri,Calibri_MSFontService,sans-serif" font-weight="400" font-size="41" transform="matrix(6.12323e-17 -1 1 6.12323e-17 4508.06 1550)">24</text></g><g clip-path="url(#clip33)"><text fill="#595959" font-family="Calibri,Calibri_MSFontService,sans-serif" font-weight="400" font-size="41" transform="matrix(6.12323e-17 -1 1 6.12323e-17 4566.42 1581)">25,2</text></g><g clip-path="url(#clip34)"><text fill="#595959" font-family="Calibri,Calibri_MSFontService,sans-serif" font-weight="400" font-size="41" transform="matrix(6.12323e-17 -1 1 6.12323e-17 4624.79 1581)">26,4</text></g><g clip-path="url(#clip35)"><text fill="#595959" font-family="Calibri,Calibri_MSFontService,sans-serif" font-weight="400" font-size="41" transform="matrix(6.12323e-17 -1 1 6.12323e-17 4683.15 1581)">27,6</text></g><g clip-path="url(#clip36)"><text fill="#595959" font-family="Calibri,Calibri_MSFontService,sans-serif" font-weight="400" font-size="41" transform="matrix(6.12323e-17 -1 1 6.12323e-17 4741.51 1581)">28,8</text></g><g clip-path="url(#clip37)"><text fill="#595959" font-family="Calibri,Calibri_MSFontService,sans-serif" font-weight="400" font-size="41" transform="matrix(6.12323e-17 -1 1 6.12323e-17 4799.88 1550)">30</text></g><g clip-path="url(#clip38)"><text fill="#595959" font-family="Calibri,Calibri_MSFontService,sans-serif" font-weight="400" font-size="64" transform="matrix(1 0 0 1 3729.6 716)">Velocidad instantánea</text></g><rect x="3191.5" y="621.5" width="1650" height="990" stroke="#D9D9D9" stroke-width="3.4375" stroke-linejoin="round" stroke-miterlimit="10" fill="none"/></g></svg>