<svg width="1653" height="993" xmlns="http://www.w3.org/2000/svg" xmlns:xlink="http://www.w3.org/1999/xlink" xml:space="preserve" overflow="hidden"><defs><clipPath id="clip0"><rect x="3190" y="620" width="1653" height="993"/></clipPath><clipPath id="clip1"><rect x="3191" y="620" width="1650" height="990"/></clipPath><clipPath id="clip2"><rect x="3191" y="620" width="1650" height="990"/></clipPath><clipPath id="clip3"><rect x="3419" y="790" width="1375" height="597"/></clipPath><clipPath id="clip4"><rect x="3191" y="620" width="1650" height="990"/></clipPath><clipPath id="clip5"><rect x="3191" y="620" width="1650" height="990"/></clipPath><clipPath id="clip6"><rect x="3191" y="620" width="1650" height="990"/></clipPath><clipPath id="clip7"><rect x="3191" y="620" width="1650" height="990"/></clipPath><clipPath id="clip8"><rect x="3191" y="620" width="1650" height="990"/></clipPath><clipPath id="clip9"><rect x="3191" y="620" width="1650" height="990"/></clipPath><clipPath id="clip10"><rect x="3191" y="620" width="1650" height="990"/></clipPath><clipPath id="clip11"><rect x="3191" y="620" width="1650" height="990"/></clipPath><clipPath id="clip12"><rect x="3191" y="620" width="1650" height="990"/></clipPath><clipPath id="clip13"><rect x="3191" y="620" width="1650" height="990"/></clipPath><clipPath id="clip14"><rect x="3191" y="620" width="1650" height="990"/></clipPath><clipPath id="clip15"><rect x="3191" y="620" width="1650" height="990"/></clipPath><clipPath id="clip16"><rect x="3191" y="620" width="1650" height="990"/></clipPath><clipPath id="clip17"><rect x="3191" y="620" width="1650" height="990"/></clipPath><clipPath id="clip18"><rect x="3191" y="620" width="1650" height="990"/></clipPath><clipPath id="clip19"><rect x="3191" y="620" width="1650" height="990"/></clipPath><clipPath id="clip20"><rect x="3191" y="620" width="1650" height="990"/></clipPath><clipPath id="clip21"><rect x="3191" y="620" width="1650" height="990"/></clipPath><clipPath id="clip22"><rect x="3191" y="620" width="1650" height="990"/></clipPath><clipPath id="clip23"><rect x="3191" y="620" width="1650" height="990"/></clipPath><clipPath id="clip24"><rect x="3191" y="620" width="1650" height="990"/></clipPath><clipPath id="clip25"><rect x="3191" y="620" width="1650" height="990"/></clipPath><clipPath id="clip26"><rect x="3191" y="620" width="1650" height="990"/></clipPath><clipPath id="clip27"><rect x="3191" y="620" width="1650" height="990"/></clipPath><clipPath id="clip28"><rect x="3191" y="620" width="1650" height="990"/></clipPath><clipPath id="clip29"><rect x="3191" y="620" width="1650" height="990"/></clipPath><clipPath id="clip30"><rect x="3191" y="620" width="1650" height="990"/></clipPath><clipPath id="clip31"><rect x="3191" y="620" width="1650" height="990"/></clipPath><clipPath id="clip32"><rect x="3191" y="620" width="1650" height="990"/></clipPath><clipPath id="clip33"><rect x="3191" y="620" width="1650" height="990"/></clipPath><clipPath id="clip34"><rect x="3191" y="620" width="1650" height="990"/></clipPath><clipPath id="clip35"><rect x="3191" y="620" width="1650" height="990"/></clipPath><clipPath id="clip36"><rect x="3191" y="620" width="1650" height="990"/></clipPath><clipPath id="clip37"><rect x="3191" y="620" width="1650" height="990"/></clipPath><clipPath id="clip38"><rect x="3191" y="620" width="1650" height="990"/></clipPath><clipPath id="clip39"><rect x="3191" y="620" width="1650" height="990"/></clipPath><clipPath id="clip40"><rect x="3191" y="620" width="1650" height="990"/></clipPath></defs><g clip-path="url(#clip0)" transform="translate(-3190 -620)"><rect x="3191" y="621" width="1650" height="990" fill="#FFFFFF"/><g clip-path="url(#clip1)"><path d="M3419.5 1299.54 4790.5 1299.54M3419.5 1214.54 4790.5 1214.54M3419.5 1129.54 4790.5 1129.54M3419.5 1045.53 4790.5 1045.53M3419.5 960.532 4790.5 960.532M3419.5 875.529 4790.5 875.529M3419.5 790.5 4790.5 790.5" stroke="#D9D9D9" stroke-width="3.4375" stroke-linejoin="round" stroke-miterlimit="10" fill="none"/></g><g clip-path="url(#clip2)"><path d="M3419.5 1384.5 4790.5 1384.5" stroke="#D9D9D9" stroke-width="3.4375" stroke-linejoin="round" stroke-miterlimit="10" fill="none" fill-rule="evenodd"/></g><g clip-path="url(#clip3)"><path d="M3424 1384 3433.11 1381.05 3442.11 1378.05 3451.11 1374.05 3460.11 1371.04 3469.11 1367.04 3478.11 1364.04 3487.11 1361.04 3496.11 1357.04 3505.11 1354.04 3515.12 1350.04 3524.12 1347.04 3533.12 1344.04 3542.12 1340.04 3551.12 1337.04 3560.12 1333.04 3569.12 1330.04 3578.12 1327.04 3587.12 1323.04 3596.12 1320.04 3605.12 1316.04 3614.12 1313.04 3624.12 1310.04 3633.12 1306.04 3642.12 1303.04 3651.12 1300.04 3660.12 1296.04 3669.12 1293.04 3678.12 1289.04 3687.12 1286.04 3696.12 1283.04 3705.12 1279.04 3714.12 1276.04 3723.12 1272.04 3733.12 1269.04 3742.12 1266.04 3751.12 1262.04 3760.12 1259.04 3769.12 1255.04 3778.12 1252.04 3787.12 1249.04 3796.12 1245.04 3805.12 1242.04 3814.12 1238.04 3823.13 1235.04 3832.13 1232.04 3842.13 1228.04 3851.13 1225.04 3860.13 1221.04 3869.13 1218.04 3878.13 1215.04 3887.13 1211.04 3896.13 1208.04 3905.13 1204.04 3914.13 1201.04 3923.13 1198.04 3932.13 1194.04 3941.13 1191.04 3951.13 1188.04 3960.13 1184.04 3969.13 1181.04 3978.13 1177.04 3987.13 1174.04 3996.13 1171.04 4005.13 1167.04 4014.13 1164.04 4023.13 1160.04 4032.13 1157.04 4041.13 1154.04 4050.13 1150.04 4060.13 1147.04 4069.13 1143.04 4078.13 1140.04 4087.13 1137.04 4096.13 1133.04 4105.13 1130.04 4114.13 1126.04 4123.14 1123.04 4132.14 1120.04 4141.14 1116.04 4150.14 1113.04 4159.14 1109.04 4169.14 1106.04 4178.14 1103.04 4187.14 1099.04 4196.14 1096.04 4205.14 1093.04 4214.14 1089.04 4223.14 1086.04 4232.14 1082.04 4241.14 1079.04 4250.14 1076.04 4259.14 1072.04 4268.14 1069.04 4278.14 1065.03 4287.14 1062.03 4296.14 1059.03 4305.14 1055.03 4314.14 1052.03 4323.14 1048.03 4332.14 1045.03 4341.14 1042.03 4350.14 1038.03 4359.14 1035.03 4368.14 1031.03 4377.14 1028.03 4387.14 1025.03 4396.14 1021.03 4405.14 1018.03 4414.14 1014.03 4423.15 1011.03 4432.15 1008.03 4441.15 1004.03 4450.15 1001.03 4459.15 998.033 4468.15 994.033 4477.15 991.032 4486.15 987.032 4496.15 984.032 4505.15 981.032 4514.15 977.032 4523.15 974.032 4532.15 970.032 4541.15 967.032 4550.15 964.032 4559.15 960.031 4568.15 957.031 4577.15 953.031 4586.15 950.031 4595.15 947.031 4605.15 943.031 4614.15 940.031 4623.15 936.031 4632.15 933.031 4641.15 930.031 4650.15 926.03 4659.15 923.03 4668.15 919.03 4677.15 916.03 4686.15 913.03 4695.15 909.03 4704.15 906.03 4714.15 902.03 4723.15 899.029 4732.16 896.029 4741.16 892.029 4750.16 889.029 4759.16 886.029 4768.16 882.029 4777.16 879.029 4786 875" stroke="#4472C4" stroke-width="10.3125" stroke-linecap="round" stroke-linejoin="round" stroke-miterlimit="10" fill="none"/></g><g clip-path="url(#clip4)"><text fill="#595959" font-family="Calibri,Calibri_MSFontService,sans-serif" font-weight="400" font-size="41" transform="matrix(1 0 0 1 3360.11 1396)">0</text></g><g clip-path="url(#clip5)"><text fill="#595959" font-family="Calibri,Calibri_MSFontService,sans-serif" font-weight="400" font-size="41" transform="matrix(1 0 0 1 3339.21 1311)">50</text></g><g clip-path="url(#clip6)"><text fill="#595959" font-family="Calibri,Calibri_MSFontService,sans-serif" font-weight="400" font-size="41" transform="matrix(1 0 0 1 3318.31 1226)">100</text></g><g clip-path="url(#clip7)"><text fill="#595959" font-family="Calibri,Calibri_MSFontService,sans-serif" font-weight="400" font-size="41" transform="matrix(1 0 0 1 3318.31 1141)">150</text></g><g clip-path="url(#clip8)"><text fill="#595959" font-family="Calibri,Calibri_MSFontService,sans-serif" font-weight="400" font-size="41" transform="matrix(1 0 0 1 3318.31 1057)">200</text></g><g clip-path="url(#clip9)"><text fill="#595959" font-family="Calibri,Calibri_MSFontService,sans-serif" font-weight="400" font-size="41" transform="matrix(1 0 0 1 3318.31 972)">250</text></g><g clip-path="url(#clip10)"><text fill="#595959" font-family="Calibri,Calibri_MSFontService,sans-serif" font-weight="400" font-size="41" transform="matrix(1 0 0 1 3318.31 887)">300</text></g><g clip-path="url(#clip11)"><text fill="#595959" font-family="Calibri,Calibri_MSFontService,sans-serif" font-weight="400" font-size="41" transform="matrix(1 0 0 1 3318.31 802)">350</text></g><g clip-path="url(#clip12)"><text fill="#595959" font-family="Calibri,Calibri_MSFontService,sans-serif" font-weight="400" font-size="41" transform="matrix(6.12323e-17 -1 1 6.12323e-17 3437.65 1431)">0</text></g><g clip-path="url(#clip13)"><text fill="#595959" font-family="Calibri,Calibri_MSFontService,sans-serif" font-weight="400" font-size="41" transform="matrix(6.12323e-17 -1 1 6.12323e-17 3492.15 1463)">1,2</text></g><g clip-path="url(#clip14)"><text fill="#595959" font-family="Calibri,Calibri_MSFontService,sans-serif" font-weight="400" font-size="41" transform="matrix(6.12323e-17 -1 1 6.12323e-17 3546.65 1463)">2,4</text></g><g clip-path="url(#clip15)"><text fill="#595959" font-family="Calibri,Calibri_MSFontService,sans-serif" font-weight="400" font-size="41" transform="matrix(6.12323e-17 -1 1 6.12323e-17 3601.16 1463)">3,6</text></g><g clip-path="url(#clip16)"><text fill="#595959" font-family="Calibri,Calibri_MSFontService,sans-serif" font-weight="400" font-size="41" transform="matrix(6.12323e-17 -1 1 6.12323e-17 3655.66 1463)">4,8</text></g><g clip-path="url(#clip17)"><text fill="#595959" font-family="Calibri,Calibri_MSFontService,sans-serif" font-weight="400" font-size="41" transform="matrix(6.12323e-17 -1 1 6.12323e-17 3710.16 1431)">6</text></g><g clip-path="url(#clip18)"><text fill="#595959" font-family="Calibri,Calibri_MSFontService,sans-serif" font-weight="400" font-size="41" transform="matrix(6.12323e-17 -1 1 6.12323e-17 3764.66 1463)">7,2</text></g><g clip-path="url(#clip19)"><text fill="#595959" font-family="Calibri,Calibri_MSFontService,sans-serif" font-weight="400" font-size="41" transform="matrix(6.12323e-17 -1 1 6.12323e-17 3819.16 1463)">8,4</text></g><g clip-path="url(#clip20)"><text fill="#595959" font-family="Calibri,Calibri_MSFontService,sans-serif" font-weight="400" font-size="41" transform="matrix(6.12323e-17 -1 1 6.12323e-17 3873.67 1463)">9,6</text></g><g clip-path="url(#clip21)"><text fill="#595959" font-family="Calibri,Calibri_MSFontService,sans-serif" font-weight="400" font-size="41" transform="matrix(6.12323e-17 -1 1 6.12323e-17 3928.17 1484)">10,8</text></g><g clip-path="url(#clip22)"><text fill="#595959" font-family="Calibri,Calibri_MSFontService,sans-serif" font-weight="400" font-size="41" transform="matrix(6.12323e-17 -1 1 6.12323e-17 3982.67 1452)">12</text></g><g clip-path="url(#clip23)"><text fill="#595959" font-family="Calibri,Calibri_MSFontService,sans-serif" font-weight="400" font-size="41" transform="matrix(6.12323e-17 -1 1 6.12323e-17 4037.17 1484)">13,2</text></g><g clip-path="url(#clip24)"><text fill="#595959" font-family="Calibri,Calibri_MSFontService,sans-serif" font-weight="400" font-size="41" transform="matrix(6.12323e-17 -1 1 6.12323e-17 4091.67 1484)">14,4</text></g><g clip-path="url(#clip25)"><text fill="#595959" font-family="Calibri,Calibri_MSFontService,sans-serif" font-weight="400" font-size="41" transform="matrix(6.12323e-17 -1 1 6.12323e-17 4146.18 1484)">15,6</text></g><g clip-path="url(#clip26)"><text fill="#595959" font-family="Calibri,Calibri_MSFontService,sans-serif" font-weight="400" font-size="41" transform="matrix(6.12323e-17 -1 1 6.12323e-17 4200.68 1484)">16,8</text></g><g clip-path="url(#clip27)"><text fill="#595959" font-family="Calibri,Calibri_MSFontService,sans-serif" font-weight="400" font-size="41" transform="matrix(6.12323e-17 -1 1 6.12323e-17 4255.18 1452)">18</text></g><g clip-path="url(#clip28)"><text fill="#595959" font-family="Calibri,Calibri_MSFontService,sans-serif" font-weight="400" font-size="41" transform="matrix(6.12323e-17 -1 1 6.12323e-17 4309.68 1484)">19,2</text></g><g clip-path="url(#clip29)"><text fill="#595959" font-family="Calibri,Calibri_MSFontService,sans-serif" font-weight="400" font-size="41" transform="matrix(6.12323e-17 -1 1 6.12323e-17 4364.18 1484)">20,4</text></g><g clip-path="url(#clip30)"><text fill="#595959" font-family="Calibri,Calibri_MSFontService,sans-serif" font-weight="400" font-size="41" transform="matrix(6.12323e-17 -1 1 6.12323e-17 4418.69 1484)">21,6</text></g><g clip-path="url(#clip31)"><text fill="#595959" font-family="Calibri,Calibri_MSFontService,sans-serif" font-weight="400" font-size="41" transform="matrix(6.12323e-17 -1 1 6.12323e-17 4473.19 1484)">22,8</text></g><g clip-path="url(#clip32)"><text fill="#595959" font-family="Calibri,Calibri_MSFontService,sans-serif" font-weight="400" font-size="41" transform="matrix(6.12323e-17 -1 1 6.12323e-17 4527.69 1452)">24</text></g><g clip-path="url(#clip33)"><text fill="#595959" font-family="Calibri,Calibri_MSFontService,sans-serif" font-weight="400" font-size="41" transform="matrix(6.12323e-17 -1 1 6.12323e-17 4582.19 1484)">25,2</text></g><g clip-path="url(#clip34)"><text fill="#595959" font-family="Calibri,Calibri_MSFontService,sans-serif" font-weight="400" font-size="41" transform="matrix(6.12323e-17 -1 1 6.12323e-17 4636.69 1484)">26,4</text></g><g clip-path="url(#clip35)"><text fill="#595959" font-family="Calibri,Calibri_MSFontService,sans-serif" font-weight="400" font-size="41" transform="matrix(6.12323e-17 -1 1 6.12323e-17 4691.2 1484)">27,6</text></g><g clip-path="url(#clip36)"><text fill="#595959" font-family="Calibri,Calibri_MSFontService,sans-serif" font-weight="400" font-size="41" transform="matrix(6.12323e-17 -1 1 6.12323e-17 4745.7 1484)">28,8</text></g><g clip-path="url(#clip37)"><text fill="#595959" font-family="Calibri,Calibri_MSFontService,sans-serif" font-weight="400" font-size="41" transform="matrix(6.12323e-17 -1 1 6.12323e-17 4800.2 1452)">30</text></g><g clip-path="url(#clip38)"><text fill="#595959" font-family="Calibri,Calibri_MSFontService,sans-serif" font-weight="400" font-size="46" transform="matrix(6.12323e-17 -1 1 6.12323e-17 3292.62 1234)">Velocidad (m/s)</text></g><g clip-path="url(#clip39)"><text fill="#595959" font-family="Calibri,Calibri_MSFontService,sans-serif" font-weight="400" font-size="46" transform="matrix(1 0 0 1 4006.8 1541)">Tiempo (s)</text></g><g clip-path="url(#clip40)"><text fill="#595959" font-family="Calibri,Calibri_MSFontService,sans-serif" font-weight="400" font-size="64" transform="matrix(1 0 0 1 3729.6 716)">Velocidad instantánea</text></g><rect x="3191.5" y="621.5" width="1650" height="990" stroke="#D9D9D9" stroke-width="3.4375" stroke-linejoin="round" stroke-miterlimit="10" fill="none"/></g></svg>